<svg xmlns="http://www.w3.org/2000/svg" version="1.1" xmlns:xlink="http://www.w3.org/1999/xlink" viewBox="0 0 200 200"><rect width="200" height="200" fill="url('#gradient')"></rect><defs><linearGradient id="gradient" gradientTransform="rotate(45 0.5 0.5)"><stop offset="0%" stop-color="#11255b"></stop><stop offset="100%" stop-color="#0a0e27"></stop></linearGradient></defs><g><g fill="#f5eec8" transform="matrix(6.82052205220522,0,0,6.82052205220522,18.695546487062288,148.46418151649453)" stroke="#8291b8" stroke-width="0.05"><path d="M10.03-8.30L10.03-5.66L4.50-5.66L4.50 0L1.07 0L1.07-14.22L10.59-14.22L10.59-11.57L4.50-11.57L4.50-8.30L10.03-8.30ZM19.35-3.78L19.35-3.78Q19.35-4.53 18.81-4.95Q18.28-5.37 16.94-5.82Q15.61-6.27 14.76-6.69L14.76-6.69Q11.99-8.05 11.99-10.42L11.99-10.42Q11.99-11.60 12.68-12.50Q13.37-13.41 14.63-13.91Q15.89-14.41 17.46-14.41L17.46-14.41Q18.99-14.41 20.21-13.87Q21.43-13.32 22.10-12.31Q22.77-11.30 22.77-10L22.77-10L19.36-10Q19.36-10.87 18.82-11.35Q18.29-11.83 17.38-11.83L17.38-11.83Q16.46-11.83 15.93-11.42Q15.40-11.02 15.40-10.39L15.40-10.39Q15.40-9.84 15.99-9.40Q16.57-8.96 18.05-8.48Q19.52-8.01 20.47-7.46L20.47-7.46Q22.77-6.13 22.77-3.80L22.77-3.80Q22.77-1.93 21.37-0.87Q19.96 0.20 17.51 0.20L17.51 0.20Q15.78 0.20 14.38-0.42Q12.98-1.04 12.27-2.12Q11.56-3.20 11.56-4.61L11.56-4.61L15-4.61Q15-3.47 15.59-2.92Q16.18-2.38 17.51-2.38L17.51-2.38Q18.36-2.38 18.85-2.75Q19.35-3.12 19.35-3.78Z"></path></g></g></svg>